<svg width="67" height="67" viewBox="0 0 67 67" fill="none" xmlns="http://www.w3.org/2000/svg">
<path d="M1.11969 0.880615L66.1193 1.11961L65.8803 66.1192L0.880697 65.8802L1.11969 0.880615Z" fill="#F7DF1E"/>
<path d="M18.0107 55.262L22.996 52.2699C23.9494 53.9749 24.817 55.4177 26.9109 55.4254C28.9181 55.4328 30.1864 54.6523 30.1976 51.5983L30.274 30.8294L36.3823 30.8519L36.3056 51.7072C36.2824 58.0338 32.5633 60.8998 27.1527 60.8799C22.2663 60.862 19.4393 58.3213 18.0107 55.262Z" fill="black"/>
<path d="M39.6126 54.6866L44.5968 51.8252C45.8982 53.9682 47.5941 55.5451 50.6045 55.5562C53.1354 55.5655 54.7541 54.306 54.7605 52.5607C54.7682 50.4664 53.113 49.7185 50.325 48.4869L48.8007 47.8264C44.4005 45.9343 41.4858 43.5675 41.5041 38.5934C41.5209 34.0121 45.0242 30.5342 50.4784 30.5543C54.3617 30.5686 57.1491 31.9315 59.1429 35.4731L54.3758 38.5097C53.3355 36.6298 52.2041 35.8841 50.4589 35.8776C48.67 35.8711 47.5313 37.0013 47.5259 38.4845C47.5191 40.3171 48.6509 41.0632 51.2644 42.2073L52.7889 42.8673C57.973 45.1118 60.8881 47.3911 60.8693 52.4959C60.8491 57.9938 56.5185 60.9882 50.7156 60.9669C45.0435 60.946 41.3883 58.2275 39.6127 54.6866" fill="black"/>
</svg>
